<svg width="76" height="76" viewBox="0 0 76 76" fill="none" xmlns="http://www.w3.org/2000/svg">
<path d="M47.1543 16H29.1543C28.0497 16 27.1543 16.8965 27.1543 18.001C27.1543 18.0294 27.1543 18.0493 27.1543 18.0592V36.0592C27.1543 37.1311 28.0243 38 29.0962 38C29.1244 38 29.1443 38 29.1543 38H47.1543C47.1643 38 47.1842 38 47.2124 38C48.2843 38 49.1543 37.1311 49.1543 36.0592V18.0591C49.1543 18.0493 49.1543 18.0294 49.1543 18.001C49.1543 16.8965 48.2589 16 47.1543 16ZM40.1543 36.0592H29.1543V28.0591H40.1543V36.0592ZM40.1543 26.0591H29.1543V18.0592L40.1543 18.0591V26.0591ZM47.1543 36.0592H42.1543V18.0592H47.1543V36.0592Z" fill="#42526E"/>
<path d="M11.6616 55.1509C11.6616 55.7856 11.5029 56.3276 11.1855 56.7769C10.873 57.2212 10.4336 57.5605 9.86719 57.7949C9.30078 58.0293 8.63428 58.1465 7.86768 58.1465C7.4624 58.1465 7.0791 58.127 6.71777 58.0879C6.35645 58.0488 6.02441 57.9927 5.72168 57.9194C5.41895 57.8462 5.15283 57.7559 4.92334 57.6484V56.4546C5.28955 56.606 5.73633 56.7476 6.26367 56.8794C6.79102 57.0063 7.34277 57.0698 7.91895 57.0698C8.45605 57.0698 8.91016 56.999 9.28125 56.8574C9.65234 56.7109 9.93311 56.5034 10.1235 56.2349C10.3188 55.9614 10.4165 55.6343 10.4165 55.2534C10.4165 54.8872 10.3359 54.582 10.1748 54.3379C10.0137 54.0889 9.74512 53.8643 9.36914 53.6641C8.99805 53.459 8.49023 53.2417 7.8457 53.0122C7.3916 52.8511 6.99121 52.6753 6.64453 52.4849C6.29785 52.2896 6.00732 52.0698 5.77295 51.8257C5.53857 51.5815 5.36035 51.2983 5.23828 50.9761C5.12109 50.6538 5.0625 50.2852 5.0625 49.8701C5.0625 49.2988 5.20654 48.8105 5.49463 48.4053C5.7876 47.9951 6.19043 47.6826 6.70312 47.4678C7.2207 47.248 7.81396 47.1382 8.48291 47.1382C9.0542 47.1382 9.58154 47.1919 10.0649 47.2993C10.5532 47.4067 11 47.5508 11.4053 47.7314L11.0171 48.8008C10.6313 48.6396 10.2212 48.5054 9.78662 48.3979C9.35693 48.2905 8.9126 48.2368 8.45361 48.2368C7.99463 48.2368 7.60645 48.3052 7.28906 48.4419C6.97656 48.5737 6.7373 48.7617 6.57129 49.0059C6.40527 49.25 6.32227 49.5405 6.32227 49.8774C6.32227 50.2534 6.40039 50.5659 6.55664 50.8149C6.71777 51.064 6.97168 51.2861 7.31836 51.4814C7.66992 51.6719 8.13379 51.8721 8.70996 52.082C9.33984 52.3115 9.87451 52.5557 10.314 52.8145C10.7534 53.0684 11.0879 53.3809 11.3174 53.752C11.5469 54.1182 11.6616 54.5845 11.6616 55.1509ZM20.2969 49.9727V58H19.3008L19.125 56.8721H19.0591C18.8931 57.1504 18.6782 57.3848 18.4146 57.5752C18.1509 57.7656 17.853 57.9072 17.521 58C17.1938 58.0977 16.8447 58.1465 16.4736 58.1465C15.8389 58.1465 15.3066 58.0439 14.877 57.8389C14.4473 57.6338 14.1226 57.3164 13.9028 56.8867C13.688 56.457 13.5806 55.9053 13.5806 55.2314V49.9727H14.811V55.1436C14.811 55.8125 14.9624 56.313 15.2651 56.645C15.5679 56.9722 16.0293 57.1357 16.6494 57.1357C17.2451 57.1357 17.7188 57.0234 18.0703 56.7988C18.4268 56.5742 18.6831 56.2446 18.8394 55.8101C18.9956 55.3706 19.0737 54.8335 19.0737 54.1987V49.9727H20.2969ZM31.5835 49.8262C32.4673 49.8262 33.1338 50.0581 33.583 50.522C34.0322 50.981 34.2568 51.7207 34.2568 52.7412V58H33.0557V52.7998C33.0557 52.1504 32.9141 51.6646 32.6309 51.3423C32.3525 51.0151 31.9375 50.8516 31.3857 50.8516C30.6094 50.8516 30.0454 51.0762 29.6938 51.5254C29.3423 51.9746 29.1665 52.6362 29.1665 53.5103V58H27.958V52.7998C27.958 52.3652 27.8945 52.0039 27.7676 51.7158C27.6455 51.4277 27.46 51.2129 27.2109 51.0713C26.9668 50.9248 26.6567 50.8516 26.2808 50.8516C25.7485 50.8516 25.3213 50.9614 24.999 51.1812C24.6768 51.4009 24.4424 51.728 24.2959 52.1626C24.1543 52.5923 24.0835 53.1221 24.0835 53.752V58H22.8677V49.9727H23.8491L24.0322 51.1079H24.0981C24.2593 50.8296 24.4619 50.5952 24.7061 50.4048C24.9502 50.2144 25.2236 50.0703 25.5264 49.9727C25.8291 49.875 26.1514 49.8262 26.4932 49.8262C27.1035 49.8262 27.6138 49.9409 28.0239 50.1704C28.439 50.395 28.7393 50.7393 28.9248 51.2031H28.9907C29.2544 50.7393 29.6157 50.395 30.0747 50.1704C30.5337 49.9409 31.0366 49.8262 31.5835 49.8262ZM45.4702 49.8262C46.354 49.8262 47.0205 50.0581 47.4697 50.522C47.9189 50.981 48.1436 51.7207 48.1436 52.7412V58H46.9424V52.7998C46.9424 52.1504 46.8008 51.6646 46.5176 51.3423C46.2393 51.0151 45.8242 50.8516 45.2725 50.8516C44.4961 50.8516 43.9321 51.0762 43.5806 51.5254C43.229 51.9746 43.0532 52.6362 43.0532 53.5103V58H41.8447V52.7998C41.8447 52.3652 41.7812 52.0039 41.6543 51.7158C41.5322 51.4277 41.3467 51.2129 41.0977 51.0713C40.8535 50.9248 40.5435 50.8516 40.1675 50.8516C39.6353 50.8516 39.208 50.9614 38.8857 51.1812C38.5635 51.4009 38.3291 51.728 38.1826 52.1626C38.041 52.5923 37.9702 53.1221 37.9702 53.752V58H36.7544V49.9727H37.7358L37.9189 51.1079H37.9849C38.146 50.8296 38.3486 50.5952 38.5928 50.4048C38.8369 50.2144 39.1104 50.0703 39.4131 49.9727C39.7158 49.875 40.0381 49.8262 40.3799 49.8262C40.9902 49.8262 41.5005 49.9409 41.9106 50.1704C42.3257 50.395 42.626 50.7393 42.8115 51.2031H42.8774C43.1411 50.7393 43.5024 50.395 43.9614 50.1704C44.4204 49.9409 44.9233 49.8262 45.4702 49.8262ZM53.644 49.8408C54.6011 49.8408 55.3115 50.0557 55.7754 50.4854C56.2393 50.915 56.4712 51.6011 56.4712 52.5435V58H55.585L55.3506 56.8135H55.292C55.0674 57.1064 54.833 57.353 54.5889 57.5532C54.3447 57.7485 54.0615 57.8975 53.7393 58C53.4219 58.0977 53.0312 58.1465 52.5674 58.1465C52.0791 58.1465 51.6445 58.061 51.2637 57.8901C50.8877 57.7192 50.5898 57.4604 50.3701 57.1138C50.1553 56.7671 50.0479 56.3276 50.0479 55.7954C50.0479 54.9946 50.3652 54.3794 51 53.9497C51.6348 53.52 52.6016 53.2856 53.9004 53.2466L55.2847 53.188V52.6973C55.2847 52.0039 55.1357 51.5181 54.8379 51.2397C54.54 50.9614 54.1201 50.8223 53.5781 50.8223C53.1582 50.8223 52.7578 50.8833 52.377 51.0054C51.9961 51.1274 51.6348 51.2715 51.293 51.4375L50.9194 50.5146C51.2808 50.3291 51.6958 50.1704 52.1646 50.0386C52.6333 49.9067 53.1265 49.8408 53.644 49.8408ZM55.27 54.0449L54.0469 54.0962C53.0459 54.1353 52.3403 54.2988 51.9302 54.5869C51.52 54.875 51.3149 55.2827 51.3149 55.8101C51.3149 56.269 51.4541 56.6084 51.7324 56.8281C52.0107 57.0479 52.3794 57.1577 52.8384 57.1577C53.5513 57.1577 54.1348 56.96 54.5889 56.5645C55.043 56.1689 55.27 55.5757 55.27 54.7847V54.0449ZM62.6235 49.8262C62.7847 49.8262 62.9531 49.8359 63.1289 49.8555C63.3047 49.8701 63.4609 49.8921 63.5977 49.9214L63.4438 51.0493C63.312 51.0151 63.1655 50.9883 63.0044 50.9688C62.8433 50.9492 62.6919 50.9395 62.5503 50.9395C62.228 50.9395 61.9229 51.0054 61.6348 51.1372C61.3516 51.2642 61.1025 51.4497 60.8877 51.6938C60.6729 51.9331 60.5044 52.2236 60.3823 52.5654C60.2603 52.9023 60.1992 53.2783 60.1992 53.6934V58H58.9761V49.9727H59.9868L60.1187 51.4521H60.1699C60.3359 51.1543 60.5361 50.8833 60.7705 50.6392C61.0049 50.3901 61.2759 50.1924 61.5835 50.0459C61.896 49.8994 62.2427 49.8262 62.6235 49.8262ZM63.8467 49.9727H65.1504L66.9229 54.6309C67.0254 54.9043 67.1206 55.168 67.2085 55.4219C67.2964 55.6709 67.3745 55.9102 67.4429 56.1396C67.5112 56.3691 67.5649 56.5913 67.604 56.8062H67.6553C67.7236 56.562 67.8213 56.2422 67.9482 55.8467C68.0752 55.4463 68.2119 55.0386 68.3584 54.6235L70.0356 49.9727H71.3467L67.853 59.1792C67.6675 59.6724 67.4502 60.1021 67.2012 60.4683C66.957 60.8345 66.6592 61.1152 66.3076 61.3105C65.9561 61.5107 65.5312 61.6108 65.0332 61.6108C64.8037 61.6108 64.6011 61.5962 64.4253 61.5669C64.2495 61.5425 64.0981 61.5132 63.9712 61.479V60.5049C64.0786 60.5293 64.208 60.5513 64.3594 60.5708C64.5156 60.5903 64.6768 60.6001 64.8428 60.6001C65.1455 60.6001 65.4067 60.5415 65.6265 60.4243C65.8511 60.312 66.0439 60.146 66.2051 59.9263C66.3662 59.7065 66.5054 59.4453 66.6226 59.1426L67.062 58.0146L63.8467 49.9727Z" fill="#42526E"/>
</svg>
