<svg width="20" height="9" viewBox="0 0 20 9" fill="none" xmlns="http://www.w3.org/2000/svg">
<path d="M18.9041 9.00568C18.6695 9.00609 18.441 8.93124 18.2521 8.79214L10 2.70898L1.74797 8.79214C1.514 8.96495 1.22091 9.0378 0.933188 8.99468C0.645461 8.95155 0.386663 8.79597 0.213727 8.56218C0.0407916 8.32838 -0.0321162 8.03551 0.0110429 7.74799C0.0542019 7.46048 0.209892 7.20187 0.443864 7.02906L9.34797 0.458588C9.53667 0.318997 9.76525 0.243652 10 0.243652C10.2348 0.243652 10.4634 0.318997 10.6521 0.458588L19.5562 7.02906C19.7421 7.16598 19.88 7.35809 19.9501 7.57797C20.0203 7.79785 20.0191 8.03426 19.9468 8.25344C19.8745 8.47262 19.7348 8.66338 19.5475 8.79847C19.3603 8.93356 19.1351 9.00608 18.9041 9.00568Z" fill="#FF3D00"/>
</svg>
