<svg width="21" height="9" viewBox="0 0 21 9" fill="none" xmlns="http://www.w3.org/2000/svg">
<path d="M10.5 8.75443C10.2654 8.75483 10.0369 8.67999 9.84802 8.54091L0.944913 1.97117C0.710967 1.79839 0.555294 1.53981 0.51214 1.25233C0.468986 0.964846 0.541886 0.672009 0.714802 0.438236C0.887718 0.204464 1.14649 0.0489057 1.43418 0.00578349C1.72188 -0.0373388 2.01493 0.0355072 2.24888 0.208295L10.5 6.29078L18.7511 0.208295C18.9851 0.0355072 19.2781 -0.0373388 19.5658 0.00578349C19.8535 0.0489057 20.1123 0.204464 20.2852 0.438236C20.4581 0.672009 20.531 0.964846 20.4879 1.25233C20.4447 1.53981 20.289 1.79839 20.0551 1.97117L11.152 8.54091C10.9631 8.67999 10.7346 8.75483 10.5 8.75443Z" fill="#7AE229"/>
</svg>
